<svg
    xmlns:dc="http://purl.org/dc/elements/1.1/"
    xmlns:cc="http://creativecommons.org/ns#"
    xmlns:rdf="http://www.w3.org/1999/02/22-rdf-syntax-ns#"
    xmlns:svg="http://www.w3.org/2000/svg"
    xmlns="http://www.w3.org/2000/svg"
    version="1.1"
    id="svg2"
    viewBox="0 0 156.28521 222.48498"
    height="62.790207mm"
    width="44.107159mm">
    <defs
      id="defs4" />
    <metadata
      id="metadata7">
      <rdf:RDF>
        <cc:Work
          rdf:about="">
          <dc:format>image/svg+xml</dc:format>
          <dc:type
            rdf:resource="http://purl.org/dc/dcmitype/StillImage" />
          <dc:title></dc:title>
        </cc:Work>
      </rdf:RDF>
    </metadata>
    <g
      transform="translate(-160.33345,-316.46608)"
      id="layer1">
      <path
        d="m 301.23782,416.64792 12.85715,2.85714 -5.71429,50 -15.71428,-2.85714 -8.57143,41.42857 -31.42857,28.57142 -28.57143,0 m -48.38068,-119.99999 -12.85715,2.85714 5.71429,50 15.71428,-2.85714 8.57143,41.42857 31.42857,28.57143 28.57143,0"
        style="fill:none;fill-rule:evenodd;stroke:#FF003A;stroke-width:4.6062994;stroke-linecap:butt;stroke-linejoin:miter;stroke-miterlimit:4;stroke-dasharray:none;stroke-opacity:1;fill-opacity:1"
        id="path3336-7" />
      <path
        id="path4156"
        d="m 205.52344,388.70898 c -11.38231,0.0529 -22.21019,2.90457 -23.64063,7.52735 -4.60465,-1.4657 -12.17773,-4.72071 -12.17773,-4.72071 l -0.0606,7.68946 10.625,3.5957 c 0,0 -9.42735,38.92738 20.65039,41.41797 29.11651,2.41099 34.79145,-26.28593 32.79492,-41.91211 l 10.03125,0 c -1.99652,15.62618 3.67842,44.3231 32.79493,41.91211 30.07774,-2.49059 20.65039,-41.41797 20.65039,-41.41797 l 10.625,-3.5957 -0.0606,-7.68946 c 0,0 -7.57309,3.25501 -12.17774,4.72071 -2.65214,-8.57101 -37.59331,-11.04356 -48.49804,-0.89453 l -16.69922,0 c -5.02326,-4.67515 -15.13599,-6.67802 -24.85742,-6.63282 z"
        style="color:#FF003A;clip-rule:nonzero;display:inline;overflow:visible;visibility:visible;opacity:1;isolation:auto;mix-blend-mode:normal;color-interpolation:sRGB;color-interpolation-filters:linearRGB;solid-color:#FF003A;solid-opacity:1;fill:#FF003A;fill-opacity:1;fill-rule:evenodd;stroke:none;stroke-width:1px;stroke-linecap:butt;stroke-linejoin:miter;stroke-miterlimit:4;stroke-dasharray:none;stroke-dashoffset:0;stroke-opacity:1;color-rendering:auto;image-rendering:auto;shape-rendering:auto;text-rendering:auto;enable-background:accumulate" />
      <path
        id="path4237"
        d="m 170.98809,383.64122 -4.28754,-24.24366 46.62696,-42.93148 58.41768,0 39.65972,41.92133 -4.28755,23.2335 -6.61192,-2.94379 3.2152,-16.10117 -31.08145,-24.3557 -12.50319,8.3517 2.49817,-11.41805 c 0,0 -12.98976,9.76541 -17.00472,12.2603 -6.43757,4.0003 -18.12057,7.78382 -18.12057,7.78382 l 7.79225,-13.41949 -12.15015,4.86957 -5,-7.45359 -6.61055,11.35678 -4.64423,-8.20377 -31.44041,20.64685 2.57279,15.53989 z"
        style="fill:#FF003A;fill-opacity:1;fill-rule:evenodd;stroke:none;stroke-width:1px;stroke-linecap:butt;stroke-linejoin:miter;stroke-opacity:1" />
      <text
        id="text4239"
        y="489.70724"
        x="204.55589"
        style="font-style:normal;font-weight:normal;font-size:40px;line-height:125%;font-family:Sans;letter-spacing:0px;word-spacing:0px;fill:#FF003A;fill-opacity:1;stroke:none;stroke-width:1px;stroke-linecap:butt;stroke-linejoin:miter;stroke-opacity:1"
        xml:space="preserve"><tspan
          y="489.70724"
          x="204.55589"
          id="tspan4241" /></text>
      <path
        id="path4293"
        d="m 215.03711,501.0625 0,2.24477 3.82604,0 0,9.27281 2.96964,0 0,-9.27281 3.53083,0 0,9.27281 15.97057,0 0,-2.24477 -5.2144,0 0,-2.63789 2.75335,0 0,-2.24476 -2.75335,0 0,-2.14539 7.56001,0 0,9.27281 2.96964,0 0,-9.27281 3.25169,0 0,9.27281 2.96964,0 0,-4.88266 4.38139,0 0,4.88266 2.96964,0 0,-11.51758 -2.96964,0 0,4.39016 -4.38139,0 0,-4.39016 z m 13.2976,2.24477 4.81398,0 0,7.02804 -4.81398,0 0,-2.63789 2.75335,0 0,-2.24476 -2.75335,0 z"
        style="font-style:normal;font-variant:normal;font-weight:bold;font-stretch:normal;font-size:medium;line-height:125%;font-family:Sans;-inkscape-font-specification:'Sans Bold';letter-spacing:0px;word-spacing:0px;fill:#FF003A;fill-opacity:1;stroke:none;stroke-width:1px;stroke-linecap:butt;stroke-linejoin:miter;stroke-opacity:1" />
    </g>
</svg>
